<svg width="136" height="25" viewBox="0 0 136 25" fill="none" xmlns="http://www.w3.org/2000/svg">
<path d="M21.2836 8.81808L15.3328 7.95323L12.6727 2.56026C12.6 2.41261 12.4805 2.29308 12.3328 2.22042C11.9625 2.03761 11.5125 2.18995 11.3273 2.56026L8.66719 7.95323L2.7164 8.81808C2.55234 8.84152 2.40234 8.91886 2.2875 9.03605C2.14866 9.17875 2.07215 9.37074 2.07479 9.56982C2.07743 9.7689 2.15899 9.95879 2.30156 10.0978L6.60703 14.2954L5.58984 20.2228C5.56599 20.3607 5.58125 20.5025 5.63389 20.6321C5.68653 20.7618 5.77444 20.8741 5.88766 20.9563C6.00088 21.0385 6.13487 21.0874 6.27445 21.0974C6.41403 21.1073 6.5536 21.078 6.67734 21.0126L12 18.2142L17.3227 21.0126C17.468 21.09 17.6367 21.1157 17.7984 21.0876C18.2063 21.0173 18.4805 20.6306 18.4102 20.2228L17.393 14.2954L21.6984 10.0978C21.8156 9.98292 21.893 9.83292 21.9164 9.66886C21.9797 9.2587 21.6938 8.87902 21.2836 8.81808Z" fill="#FFCB45"/>
<path d="M49.2836 8.81808L43.3328 7.95323L40.6727 2.56026C40.6 2.41261 40.4805 2.29308 40.3328 2.22042C39.9625 2.03761 39.5125 2.18995 39.3273 2.56026L36.6672 7.95323L30.7164 8.81808C30.5523 8.84152 30.4023 8.91886 30.2875 9.03605C30.1487 9.17875 30.0722 9.37074 30.0748 9.56982C30.0774 9.7689 30.159 9.95879 30.3016 10.0978L34.607 14.2954L33.5898 20.2228C33.566 20.3607 33.5812 20.5025 33.6339 20.6321C33.6865 20.7618 33.7744 20.8741 33.8877 20.9563C34.0009 21.0385 34.1349 21.0874 34.2745 21.0974C34.414 21.1073 34.5536 21.078 34.6773 21.0126L40 18.2142L45.3227 21.0126C45.468 21.09 45.6367 21.1157 45.7984 21.0876C46.2063 21.0173 46.4805 20.6306 46.4102 20.2228L45.393 14.2954L49.6984 10.0978C49.8156 9.98292 49.893 9.83292 49.9164 9.66886C49.9797 9.2587 49.6938 8.87902 49.2836 8.81808Z" fill="#FFCB45"/>
<path d="M77.2836 8.81808L71.3328 7.95323L68.6727 2.56026C68.6 2.41261 68.4805 2.29308 68.3328 2.22042C67.9625 2.03761 67.5125 2.18995 67.3273 2.56026L64.6672 7.95323L58.7164 8.81808C58.5523 8.84152 58.4023 8.91886 58.2875 9.03605C58.1487 9.17875 58.0722 9.37074 58.0748 9.56982C58.0774 9.7689 58.159 9.95879 58.3016 10.0978L62.607 14.2954L61.5898 20.2228C61.566 20.3607 61.5812 20.5025 61.6339 20.6321C61.6865 20.7618 61.7744 20.8741 61.8877 20.9563C62.0009 21.0385 62.1349 21.0874 62.2745 21.0974C62.414 21.1073 62.5536 21.078 62.6773 21.0126L68 18.2142L73.3227 21.0126C73.468 21.09 73.6367 21.1157 73.7984 21.0876C74.2063 21.0173 74.4805 20.6306 74.4102 20.2228L73.393 14.2954L77.6984 10.0978C77.8156 9.98292 77.893 9.83292 77.9164 9.66886C77.9797 9.2587 77.6938 8.87902 77.2836 8.81808Z" fill="#FFCB45"/>
<path d="M105.284 8.81808L99.3328 7.95323L96.6727 2.56026C96.6 2.41261 96.4805 2.29308 96.3328 2.22042C95.9625 2.03761 95.5125 2.18995 95.3273 2.56026L92.6672 7.95323L86.7164 8.81808C86.5523 8.84152 86.4023 8.91886 86.2875 9.03605C86.1487 9.17875 86.0722 9.37074 86.0748 9.56982C86.0774 9.7689 86.159 9.95879 86.3016 10.0978L90.607 14.2954L89.5898 20.2228C89.566 20.3607 89.5812 20.5025 89.6339 20.6321C89.6865 20.7618 89.7744 20.8741 89.8877 20.9563C90.0009 21.0385 90.1349 21.0874 90.2745 21.0974C90.414 21.1073 90.5536 21.078 90.6773 21.0126L96 18.2142L101.323 21.0126C101.468 21.09 101.637 21.1157 101.798 21.0876C102.206 21.0173 102.48 20.6306 102.41 20.2228L101.393 14.2954L105.698 10.0978C105.816 9.98292 105.893 9.83292 105.916 9.66886C105.98 9.2587 105.694 8.87902 105.284 8.81808Z" fill="#FFCB45"/>
<path d="M117.025 21.3173C116.991 21.4639 116.99 21.6165 117.023 21.7634C117.056 21.9104 117.122 22.0479 117.216 22.1658C117.31 22.2836 117.429 22.3787 117.565 22.4439C117.701 22.5091 117.849 22.5427 118 22.5423C118.198 22.5423 118.391 22.4838 118.555 22.3743L124 18.7443L129.445 22.3743C129.615 22.4873 129.816 22.5456 130.021 22.5411C130.225 22.5366 130.423 22.4696 130.588 22.3492C130.754 22.2287 130.878 22.0606 130.945 21.8673C131.012 21.6741 131.018 21.465 130.962 21.2683L129.133 14.8683L133.669 10.7863C133.814 10.6554 133.918 10.4849 133.967 10.2958C134.017 10.1066 134.01 9.90713 133.947 9.72199C133.884 9.53685 133.768 9.37417 133.614 9.25408C133.46 9.13398 133.274 9.06172 133.079 9.04625L127.378 8.59225L124.911 3.13125C124.832 2.95536 124.705 2.80597 124.543 2.70111C124.381 2.59624 124.193 2.54039 124 2.54028C123.808 2.54018 123.619 2.59583 123.457 2.70051C123.296 2.8052 123.168 2.95445 123.089 3.13025L120.622 8.59225L114.921 9.04525C114.729 9.06043 114.546 9.13046 114.394 9.24698C114.241 9.3635 114.125 9.52157 114.059 9.70228C113.994 9.88299 113.982 10.0787 114.025 10.266C114.068 10.4532 114.164 10.6241 114.302 10.7583L118.516 14.8653L117.025 21.3173ZM124 5.97125L126.042 10.4923L126.63 10.5393H126.631L130.603 10.8543L127.332 13.7983L127.331 13.8003L126.868 14.2163L127.039 14.8133V14.8163L128.292 19.2013L124 16.3403V5.97125Z" fill="#FFCB45"/>
</svg>
